# Blender 4.2.1 LTS
# www.blender.org
mtllib the-pit.mtl
o ground
v -50.000000 -20.000000 50.000000
v 50.000000 -20.000000 50.000000
v -50.000000 -20.000000 -50.000000
v 50.000000 -20.000000 -50.000000
vn -0.0000 1.0000 -0.0000
s 0
usemtl grass
f 1//1 2//1 4//1 3//1
o northWall
v -50.000000 -21.000002 -49.000004
v 50.000000 -21.000002 -49.000004
v -50.000000 30.000000 -48.999996
v 50.000000 30.000000 -48.999996
vn -0.0000 -0.0000 1.0000
s 0
usemtl brik
f 5//2 6//2 8//2 7//2
o southWall
v -50.000000 -21.000002 48.999996
v 50.000000 -21.000002 48.999996
v -50.000000 30.000000 49.000004
v 50.000000 30.000000 49.000004
vn -0.0000 -0.0000 1.0000
s 0
usemtl brik
f 9//3 10//3 12//3 11//3
o eastWall
v 49.000000 -21.000002 50.000000
v 48.999996 -21.000002 -50.000000
v 49.000004 30.000000 50.000000
v 49.000000 30.000000 -50.000000
vn 1.0000 -0.0000 -0.0000
s 0
usemtl brik
f 13//4 14//4 16//4 15//4
o westWall
v -49.000000 -21.000002 50.000000
v -49.000004 -21.000002 -50.000000
v -48.999996 30.000000 50.000000
v -49.000000 30.000000 -50.000000
vn 1.0000 -0.0000 -0.0000
s 0
usemtl brik
f 17//5 18//5 20//5 19//5
o groundColl
v -50.000000 -18.500000 50.000000
v 50.000000 -18.500000 50.000000
v -50.000000 -18.500000 -50.000000
v 50.000000 -18.500000 -50.000000
vn -0.0000 1.0000 -0.0000
s 0
usemtl collision
f 21//6 22//6 24//6 23//6
o southWallColl
v -50.000000 -21.000002 49.500080
v 50.000000 -21.000002 49.500080
v -50.000000 30.000000 49.500088
v 50.000000 30.000000 49.500088
vn -0.0000 -0.0000 1.0000
s 0
usemtl collision
f 25//7 26//7 28//7 27//7
o eastWallColl
v 49.500000 -21.000002 50.000000
v 49.499996 -21.000002 -50.000000
v 49.500004 30.000000 50.000000
v 49.500000 30.000000 -50.000000
vn 1.0000 -0.0000 -0.0000
s 0
usemtl collision
f 29//8 30//8 32//8 31//8
o northWallColl
v -50.000000 -21.000002 -49.500004
v 50.000000 -21.000002 -49.500004
v -50.000000 30.000000 -49.499996
v 50.000000 30.000000 -49.499996
vn -0.0000 -0.0000 1.0000
s 0
usemtl collision
f 33//9 34//9 36//9 35//9
o westWallColl
v -49.500000 -21.000002 50.000000
v -49.500004 -21.000002 -50.000000
v -49.499996 30.000000 50.000000
v -49.500000 30.000000 -50.000000
vn 1.0000 -0.0000 -0.0000
s 0
usemtl collision
f 37//10 38//10 40//10 39//10
