# Blender 4.2.1 LTS
# www.blender.org
mtllib octahedron0010.mtl
o Plane
v -1.300000 0.920991 0.000000
v 0.000000 0.920991 1.300000
v 1.300000 0.920991 0.000000
v 0.000000 0.920991 -1.300000
v 0.000000 2.025991 0.000000
vn -0.5436 -0.6395 -0.5436
vn -0.5436 -0.6395 0.5436
vn 0.5436 -0.6395 -0.5436
vn 0.5436 -0.6395 0.5436
vt 0.000000 0.000000
s 0
usemtl Material.001
f 3/1/1 2/1/1 5/1/1
f 4/1/2 3/1/2 5/1/2
f 1/1/3 5/1/3 2/1/3
f 4/1/4 5/1/4 1/1/4
o top
v -1.300000 0.920991 0.000000
v 0.000000 0.920991 1.300000
v 1.300000 0.920991 0.000000
v 0.000000 0.920991 -1.300000
v 0.000000 -0.184009 0.000000
vn -0.5436 0.6395 -0.5436
vn -0.5436 0.6395 0.5436
vn 0.5436 0.6395 0.5436
vn 0.5436 0.6395 -0.5436
vt 0.000000 0.000000
s 0
usemtl Material.001
f 10/2/5 7/2/5 8/2/5
f 10/2/6 8/2/6 9/2/6
f 9/2/7 6/2/7 10/2/7
f 10/2/8 6/2/8 7/2/8
