# Blender 4.2.1 LTS
# www.blender.org
mtllib golden-apple.mtl
o Cylinder
v -0.039123 0.250415 -0.038493
v -0.002491 1.489607 -0.038493
v -0.031320 0.250415 -0.037725
v 0.005312 1.489607 -0.037725
v -0.023816 0.250415 -0.035449
v 0.012816 1.489607 -0.035449
v -0.016900 0.250415 -0.031752
v 0.019732 1.489607 -0.031752
v -0.010839 0.250415 -0.026778
v 0.025793 1.489607 -0.026778
v -0.005865 0.250415 -0.020716
v 0.030768 1.489607 -0.020716
v -0.002168 0.250415 -0.013801
v 0.034464 1.489607 -0.013801
v 0.000108 0.250415 -0.006297
v 0.036740 1.489607 -0.006297
v 0.000877 0.250415 0.001507
v 0.037509 1.489607 0.001507
v 0.000108 0.250415 0.009310
v 0.036740 1.489607 0.009310
v -0.002168 0.250415 0.016814
v 0.034464 1.489607 0.016814
v -0.005865 0.250415 0.023729
v 0.030768 1.489607 0.023729
v -0.010839 0.250415 0.029791
v 0.025793 1.489607 0.029791
v -0.016900 0.250415 0.034765
v 0.019732 1.489607 0.034765
v -0.023816 0.250415 0.038462
v 0.012816 1.489607 0.038462
v -0.031320 0.250415 0.040738
v 0.005312 1.489607 0.040738
v -0.039123 0.250415 0.041507
v -0.002491 1.489607 0.041507
v -0.046927 0.250415 0.040738
v -0.010295 1.489607 0.040738
v -0.054431 0.250415 0.038462
v -0.017798 1.489607 0.038462
v -0.061346 0.250415 0.034765
v -0.024714 1.489607 0.034765
v -0.067408 0.250415 0.029791
v -0.030775 1.489607 0.029791
v -0.072382 0.250415 0.023729
v -0.035750 1.489607 0.023729
v -0.076078 0.250415 0.016814
v -0.039446 1.489607 0.016814
v -0.078355 0.250415 0.009310
v -0.041723 1.489607 0.009310
v -0.079123 0.250415 0.001507
v -0.042491 1.489607 0.001507
v -0.078355 0.250415 -0.006297
v -0.041723 1.489607 -0.006297
v -0.076078 0.250415 -0.013801
v -0.039446 1.489607 -0.013801
v -0.072382 0.250415 -0.020716
v -0.035750 1.489607 -0.020716
v -0.067408 0.250415 -0.026778
v -0.030775 1.489607 -0.026778
v -0.061346 0.250415 -0.031752
v -0.024714 1.489607 -0.031752
v -0.054431 0.250415 -0.035449
v -0.017798 1.489607 -0.035449
v -0.046927 0.250415 -0.037725
v -0.010295 1.489607 -0.037725
v 0.045131 1.114311 -0.038493
v 0.052934 1.114311 -0.037725
v 0.060438 1.114311 -0.035449
v 0.067353 1.114311 -0.031752
v 0.073415 1.114311 -0.026778
v 0.078389 1.114311 -0.020716
v 0.082086 1.114311 -0.013801
v 0.084362 1.114311 -0.006297
v 0.085131 1.114311 0.001507
v 0.084362 1.114311 0.009310
v 0.082086 1.114311 0.016814
v 0.078389 1.114311 0.023729
v 0.073415 1.114311 0.029791
v 0.067353 1.114311 0.034765
v 0.060438 1.114311 0.038462
v 0.052934 1.114311 0.040738
v 0.045131 1.114311 0.041507
v 0.037327 1.114311 0.040738
v 0.029823 1.114311 0.038462
v 0.022908 1.114311 0.034765
v 0.016846 1.114311 0.029791
v 0.011872 1.114311 0.023729
v 0.008175 1.114311 0.016814
v 0.005899 1.114311 0.009310
v 0.005131 1.114311 0.001507
v 0.005899 1.114311 -0.006297
v 0.008175 1.114311 -0.013801
v 0.011872 1.114311 -0.020716
v 0.016846 1.114311 -0.026778
v 0.022908 1.114311 -0.031752
v 0.029823 1.114311 -0.035449
v 0.037327 1.114311 -0.037725
vn 0.0980 0.0124 -0.9951
vn 0.2901 0.0368 -0.9563
vn 0.4706 0.0597 -0.8803
vn 0.6323 0.0802 -0.7705
vn 0.7693 0.0976 -0.6314
vn 0.8765 0.1112 -0.4685
vn 0.9500 0.1205 -0.2882
vn 0.9873 0.1253 -0.0972
vn 0.9873 0.1253 0.0972
vn 0.9500 0.1205 0.2882
vn 0.8765 0.1112 0.4685
vn 0.7693 0.0976 0.6314
vn 0.6323 0.0802 0.7705
vn 0.4706 0.0597 0.8803
vn 0.2901 0.0368 0.9563
vn 0.0980 0.0124 0.9951
vn -0.0980 -0.0124 0.9951
vn -0.2901 -0.0368 0.9563
vn -0.4706 -0.0597 0.8803
vn -0.6323 -0.0802 0.7705
vn -0.7693 -0.0976 0.6314
vn -0.8765 -0.1112 0.4685
vn -0.9500 -0.1205 0.2882
vn -0.9873 -0.1253 0.0972
vn -0.9873 -0.1253 -0.0972
vn -0.9500 -0.1205 -0.2882
vn -0.8765 -0.1112 -0.4685
vn -0.7693 -0.0976 -0.6314
vn -0.6323 -0.0802 -0.7705
vn -0.4706 -0.0597 -0.8803
vn -0.0000 1.0000 -0.0000
vn -0.2901 -0.0368 -0.9563
vn -0.0980 -0.0124 -0.9951
vn -0.0000 -1.0000 -0.0000
vn -0.0980 0.0096 -0.9951
vn -0.2902 0.0283 -0.9566
vn -0.4709 0.0459 -0.8810
vn -0.6332 0.0618 -0.7715
vn -0.7708 0.0752 -0.6326
vn -0.8787 0.0857 -0.4697
vn -0.9528 0.0929 -0.2890
vn -0.9905 0.0966 -0.0976
vn -0.9905 0.0966 0.0976
vn -0.9528 0.0929 0.2890
vn -0.8787 0.0857 0.4697
vn -0.7708 0.0752 0.6326
vn -0.6332 0.0618 0.7715
vn -0.4709 0.0459 0.8810
vn -0.2902 0.0283 0.9566
vn -0.0980 0.0096 0.9951
vn 0.0980 -0.0096 0.9951
vn 0.2902 -0.0283 0.9566
vn 0.4709 -0.0459 0.8810
vn 0.6332 -0.0618 0.7715
vn 0.7708 -0.0752 0.6326
vn 0.8787 -0.0857 0.4697
vn 0.9528 -0.0929 0.2890
vn 0.9905 -0.0966 0.0976
vn 0.9905 -0.0966 -0.0976
vn 0.9528 -0.0929 -0.2890
vn 0.8787 -0.0857 -0.4697
vn 0.7708 -0.0752 -0.6326
vn 0.6332 -0.0618 -0.7715
vn 0.4709 -0.0459 -0.8810
vn 0.2902 -0.0283 -0.9566
vn 0.0980 -0.0096 -0.9951
vn 0.0001 1.0000 -0.0000
vn -0.0001 1.0000 -0.0000
vt 1.000000 0.886161
vt 0.968750 1.000000
vt 0.968750 0.886161
vt 0.937500 1.000000
vt 0.937500 0.886161
vt 0.906250 1.000000
vt 0.906250 0.886161
vt 0.875000 1.000000
vt 0.875000 0.886161
vt 0.843750 1.000000
vt 0.843750 0.886161
vt 0.812500 1.000000
vt 0.812500 0.886161
vt 0.781250 1.000000
vt 0.781250 0.886161
vt 0.750000 1.000000
vt 0.750000 0.886161
vt 0.718750 0.886161
vt 0.718750 1.000000
vt 0.687500 0.886161
vt 0.687500 1.000000
vt 0.656250 0.886161
vt 0.656250 1.000000
vt 0.625000 0.886161
vt 0.625000 1.000000
vt 0.593750 0.886161
vt 0.593750 1.000000
vt 0.562500 0.886161
vt 0.562500 1.000000
vt 0.531250 0.886161
vt 0.531250 1.000000
vt 0.500000 0.886161
vt 0.500000 1.000000
vt 0.468750 0.886161
vt 0.468750 1.000000
vt 0.437500 0.886161
vt 0.437500 1.000000
vt 0.406250 0.886161
vt 0.406250 1.000000
vt 0.375000 0.886161
vt 0.375000 1.000000
vt 0.343750 0.886161
vt 0.343750 1.000000
vt 0.312500 0.886161
vt 0.312500 1.000000
vt 0.281250 0.886161
vt 0.281250 1.000000
vt 0.250000 0.886161
vt 0.218750 1.000000
vt 0.218750 0.886161
vt 0.187500 1.000000
vt 0.187500 0.886161
vt 0.156250 1.000000
vt 0.156250 0.886161
vt 0.125000 1.000000
vt 0.125000 0.886161
vt 0.093750 1.000000
vt 0.093750 0.886161
vt 0.062500 1.000000
vt 0.062500 0.886161
vt 0.158156 0.028269
vt 0.471731 0.158156
vt 0.341844 0.471731
vt 0.031250 1.000000
vt 0.031250 0.886161
vt 0.000000 1.000000
vt 0.000000 0.886161
vt 0.796822 0.014612
vt 0.514612 0.203178
vt 0.703178 0.485388
vt 0.000000 0.500000
vt 0.031250 0.500000
vt 0.062500 0.500000
vt 0.093750 0.500000
vt 0.125000 0.500000
vt 0.156250 0.500000
vt 0.187500 0.500000
vt 0.218750 0.500000
vt 0.250000 0.500000
vt 0.281250 0.500000
vt 0.312500 0.500000
vt 0.343750 0.500000
vt 0.375000 0.500000
vt 0.406250 0.500000
vt 0.437500 0.500000
vt 0.468750 0.500000
vt 0.500000 0.500000
vt 0.531250 0.500000
vt 0.562500 0.500000
vt 0.593750 0.500000
vt 0.625000 0.500000
vt 0.656250 0.500000
vt 0.687500 0.500000
vt 0.718750 0.500000
vt 0.750000 0.500000
vt 0.781250 0.500000
vt 0.812500 0.500000
vt 0.843750 0.500000
vt 0.875000 0.500000
vt 0.906250 0.500000
vt 0.937500 0.500000
vt 0.968750 0.500000
vt 1.000000 0.500000
vt 1.000000 1.000000
vt 0.250000 1.000000
vt 0.296822 0.485388
vt 0.250000 0.490000
vt 0.203178 0.485388
vt 0.158156 0.471731
vt 0.116663 0.449553
vt 0.080294 0.419706
vt 0.050447 0.383337
vt 0.028269 0.341844
vt 0.014612 0.296822
vt 0.010000 0.250000
vt 0.014612 0.203178
vt 0.028269 0.158156
vt 0.050447 0.116663
vt 0.080294 0.080294
vt 0.116663 0.050447
vt 0.203178 0.014612
vt 0.250000 0.010000
vt 0.296822 0.014612
vt 0.341844 0.028269
vt 0.383337 0.050447
vt 0.419706 0.080294
vt 0.449553 0.116663
vt 0.485388 0.203178
vt 0.490000 0.250000
vt 0.485388 0.296822
vt 0.471731 0.341844
vt 0.449553 0.383337
vt 0.419706 0.419706
vt 0.383337 0.449553
vt 0.750000 0.490000
vt 0.796822 0.485388
vt 0.841844 0.471731
vt 0.883337 0.449553
vt 0.919706 0.419706
vt 0.949553 0.383337
vt 0.971731 0.341844
vt 0.985388 0.296822
vt 0.990000 0.250000
vt 0.985388 0.203178
vt 0.971731 0.158156
vt 0.949553 0.116663
vt 0.919706 0.080294
vt 0.883337 0.050447
vt 0.841844 0.028269
vt 0.750000 0.010000
vt 0.703178 0.014612
vt 0.658156 0.028269
vt 0.616663 0.050447
vt 0.580294 0.080294
vt 0.550447 0.116663
vt 0.528269 0.158156
vt 0.510000 0.250000
vt 0.514612 0.296822
vt 0.528269 0.341844
vt 0.550447 0.383337
vt 0.580294 0.419706
vt 0.616663 0.449553
vt 0.658156 0.471731
s 0
usemtl Material.002
f 65/1/1 4/2/1 66/3/1
f 66/3/2 6/4/2 67/5/2
f 67/5/3 8/6/3 68/7/3
f 68/7/4 10/8/4 69/9/4
f 69/9/5 12/10/5 70/11/5
f 70/11/6 14/12/6 71/13/6
f 71/13/7 16/14/7 72/15/7
f 72/15/8 18/16/8 73/17/8
f 18/16/9 74/18/9 73/17/9
f 20/19/10 75/20/10 74/18/10
f 22/21/11 76/22/11 75/20/11
f 24/23/12 77/24/12 76/22/12
f 26/25/13 78/26/13 77/24/13
f 28/27/14 79/28/14 78/26/14
f 30/29/15 80/30/15 79/28/15
f 32/31/16 81/32/16 80/30/16
f 34/33/17 82/34/17 81/32/17
f 36/35/18 83/36/18 82/34/18
f 38/37/19 84/38/19 83/36/19
f 40/39/20 85/40/20 84/38/20
f 42/41/21 86/42/21 85/40/21
f 44/43/22 87/44/22 86/42/22
f 46/45/23 88/46/23 87/44/23
f 48/47/24 89/48/24 88/46/24
f 89/48/25 52/49/25 90/50/25
f 90/50/26 54/51/26 91/52/26
f 91/52/27 56/53/27 92/54/27
f 92/54/28 58/55/28 93/56/28
f 93/56/29 60/57/29 94/58/29
f 94/58/30 62/59/30 95/60/30
f 38/61/31 22/62/31 6/63/31
f 95/60/32 64/64/32 96/65/32
f 96/65/33 2/66/33 65/67/33
f 31/68/34 47/69/34 63/70/34
f 96/65/35 1/71/35 63/72/35
f 95/60/36 63/72/36 61/73/36
f 94/58/37 61/73/37 59/74/37
f 93/56/38 59/74/38 57/75/38
f 92/54/39 57/75/39 55/76/39
f 91/52/40 55/76/40 53/77/40
f 90/50/41 53/77/41 51/78/41
f 89/48/42 51/78/42 49/79/42
f 47/80/43 89/48/43 49/79/43
f 45/81/44 88/46/44 47/80/44
f 43/82/45 87/44/45 45/81/45
f 41/83/46 86/42/46 43/82/46
f 39/84/47 85/40/47 41/83/47
f 37/85/48 84/38/48 39/84/48
f 35/86/49 83/36/49 37/85/49
f 33/87/50 82/34/50 35/86/50
f 31/88/51 81/32/51 33/87/51
f 29/89/52 80/30/52 31/88/52
f 27/90/53 79/28/53 29/89/53
f 25/91/54 78/26/54 27/90/54
f 23/92/55 77/24/55 25/91/55
f 21/93/56 76/22/56 23/92/56
f 19/94/57 75/20/57 21/93/57
f 17/95/58 74/18/58 19/94/58
f 72/15/59 17/95/59 15/96/59
f 71/13/60 15/96/60 13/97/60
f 70/11/61 13/97/61 11/98/61
f 69/9/62 11/98/62 9/99/62
f 68/7/63 9/99/63 7/100/63
f 67/5/64 7/100/64 5/101/64
f 66/3/65 5/101/65 3/102/65
f 65/1/66 3/102/66 1/103/66
f 65/1/1 2/104/1 4/2/1
f 66/3/2 4/2/2 6/4/2
f 67/5/3 6/4/3 8/6/3
f 68/7/4 8/6/4 10/8/4
f 69/9/5 10/8/5 12/10/5
f 70/11/6 12/10/6 14/12/6
f 71/13/7 14/12/7 16/14/7
f 72/15/8 16/14/8 18/16/8
f 18/16/9 20/19/9 74/18/9
f 20/19/10 22/21/10 75/20/10
f 22/21/11 24/23/11 76/22/11
f 24/23/12 26/25/12 77/24/12
f 26/25/13 28/27/13 78/26/13
f 28/27/14 30/29/14 79/28/14
f 30/29/15 32/31/15 80/30/15
f 32/31/16 34/33/16 81/32/16
f 34/33/17 36/35/17 82/34/17
f 36/35/18 38/37/18 83/36/18
f 38/37/19 40/39/19 84/38/19
f 40/39/20 42/41/20 85/40/20
f 42/41/21 44/43/21 86/42/21
f 44/43/22 46/45/22 87/44/22
f 46/45/23 48/47/23 88/46/23
f 48/47/24 50/105/24 89/48/24
f 89/48/25 50/105/25 52/49/25
f 90/50/26 52/49/26 54/51/26
f 91/52/27 54/51/27 56/53/27
f 92/54/28 56/53/28 58/55/28
f 93/56/29 58/55/29 60/57/29
f 94/58/30 60/57/30 62/59/30
f 6/63/31 4/106/31 2/107/31
f 2/107/31 64/108/31 62/109/31
f 62/109/31 60/110/31 58/111/31
f 58/111/67 56/112/67 54/113/67
f 54/113/31 52/114/31 50/115/31
f 50/115/31 48/116/31 46/117/31
f 46/117/67 44/118/67 42/119/67
f 42/119/31 40/120/31 38/61/31
f 38/61/31 36/121/31 34/122/31
f 34/122/31 32/123/31 30/124/31
f 30/124/31 28/125/31 26/126/31
f 26/126/68 24/127/68 22/62/68
f 22/62/31 20/128/31 18/129/31
f 18/129/31 16/130/31 14/131/31
f 14/131/68 12/132/68 10/133/68
f 10/133/31 8/134/31 6/63/31
f 6/63/31 2/107/31 62/109/31
f 62/109/31 58/111/31 54/113/31
f 54/113/31 50/115/31 46/117/31
f 46/117/31 42/119/31 38/61/31
f 38/61/31 34/122/31 30/124/31
f 30/124/31 26/126/31 22/62/31
f 22/62/31 18/129/31 14/131/31
f 14/131/31 10/133/31 6/63/31
f 6/63/31 62/109/31 54/113/31
f 54/113/31 46/117/31 38/61/31
f 38/61/31 30/124/31 22/62/31
f 22/62/31 14/131/31 6/63/31
f 6/63/31 54/113/31 38/61/31
f 95/60/32 62/59/32 64/64/32
f 96/65/33 64/64/33 2/66/33
f 63/70/34 1/135/34 3/136/34
f 3/136/34 5/137/34 7/138/34
f 7/138/34 9/139/34 11/140/34
f 11/140/34 13/141/34 15/142/34
f 15/142/34 17/143/34 19/144/34
f 19/144/34 21/145/34 23/146/34
f 23/146/34 25/147/34 27/148/34
f 27/148/34 29/149/34 31/68/34
f 31/68/34 33/150/34 35/151/34
f 35/151/34 37/152/34 39/153/34
f 39/153/34 41/154/34 43/155/34
f 43/155/34 45/156/34 47/69/34
f 47/69/34 49/157/34 51/158/34
f 51/158/34 53/159/34 55/160/34
f 55/160/34 57/161/34 59/162/34
f 59/162/34 61/163/34 63/70/34
f 63/70/34 3/136/34 7/138/34
f 7/138/34 11/140/34 15/142/34
f 15/142/34 19/144/34 23/146/34
f 23/146/34 27/148/34 31/68/34
f 31/68/34 35/151/34 39/153/34
f 39/153/34 43/155/34 47/69/34
f 47/69/34 51/158/34 55/160/34
f 55/160/34 59/162/34 63/70/34
f 63/70/34 7/138/34 15/142/34
f 15/142/34 23/146/34 31/68/34
f 31/68/34 39/153/34 47/69/34
f 47/69/34 55/160/34 63/70/34
f 63/70/34 15/142/34 31/68/34
f 96/65/35 65/67/35 1/71/35
f 95/60/36 96/65/36 63/72/36
f 94/58/37 95/60/37 61/73/37
f 93/56/38 94/58/38 59/74/38
f 92/54/39 93/56/39 57/75/39
f 91/52/40 92/54/40 55/76/40
f 90/50/41 91/52/41 53/77/41
f 89/48/42 90/50/42 51/78/42
f 47/80/43 88/46/43 89/48/43
f 45/81/44 87/44/44 88/46/44
f 43/82/45 86/42/45 87/44/45
f 41/83/46 85/40/46 86/42/46
f 39/84/47 84/38/47 85/40/47
f 37/85/48 83/36/48 84/38/48
f 35/86/49 82/34/49 83/36/49
f 33/87/50 81/32/50 82/34/50
f 31/88/51 80/30/51 81/32/51
f 29/89/52 79/28/52 80/30/52
f 27/90/53 78/26/53 79/28/53
f 25/91/54 77/24/54 78/26/54
f 23/92/55 76/22/55 77/24/55
f 21/93/56 75/20/56 76/22/56
f 19/94/57 74/18/57 75/20/57
f 17/95/58 73/17/58 74/18/58
f 72/15/59 73/17/59 17/95/59
f 71/13/60 72/15/60 15/96/60
f 70/11/61 71/13/61 13/97/61
f 69/9/62 70/11/62 11/98/62
f 68/7/63 69/9/63 9/99/63
f 67/5/64 68/7/64 7/100/64
f 66/3/65 67/5/65 5/101/65
f 65/1/66 66/3/66 3/102/66
o Icosphere
v 0.067753 -0.695945 0.006350
v 0.733724 -0.596265 0.532152
v -0.267531 -0.589220 0.857124
v -0.886323 -0.585018 0.006350
v -0.267531 -0.589220 -0.844425
v 0.733724 -0.596265 -0.519453
v 0.288221 0.530151 0.919612
v -0.785380 0.529548 0.570772
v -0.785380 0.529548 -0.558073
v 0.288221 0.530151 -0.906913
v 0.951751 0.530521 0.006350
v -0.001996 0.686786 0.006350
v -0.115015 -0.884246 0.506345
v 0.472763 -0.884246 0.315361
v 0.268114 -0.642733 0.815480
v 0.855980 -0.642733 0.006350
v 0.472763 -0.884246 -0.302662
v -0.478290 -0.884247 0.006350
v -0.684349 -0.634724 0.506420
v -0.115015 -0.884246 -0.493646
v -0.684349 -0.634724 -0.493721
v 0.268114 -0.642733 -0.802781
v 0.974786 -0.038871 0.325152
v 0.974786 -0.038871 -0.312453
v -0.006693 -0.037126 1.038030
v 0.599727 -0.036449 0.840996
v -0.988291 -0.034015 0.325152
v -0.613503 -0.033578 0.840996
v -0.613503 -0.033578 -0.828296
v -0.988291 -0.034015 -0.312453
v 0.599727 -0.036449 -0.828296
v -0.006693 -0.037126 -1.025330
v 0.730334 0.584402 0.543150
v -0.290729 0.583987 0.874910
v -0.921772 0.583314 0.006350
v -0.290729 0.583987 -0.862211
v 0.730334 0.584402 -0.530450
v 0.168321 0.896570 0.543148
v 0.558334 0.896570 0.006350
v -0.462722 0.896570 0.338106
v -0.462722 0.896570 -0.325407
v 0.168321 0.896570 -0.530449
vn -0.1267 -0.9121 -0.3898
vn 0.6384 -0.7394 0.2138
vn 0.3172 -0.9199 -0.2305
vn 0.3172 -0.9199 0.2305
vn -0.1267 -0.9121 0.3898
vn 0.9202 -0.3084 0.2412
vn 0.0406 -0.3284 0.9437
vn -0.8806 -0.3487 0.3210
vn -0.5830 -0.3416 -0.7372
vn 0.5160 -0.3158 -0.7962
vn 0.8017 -0.1300 0.5835
vn -0.3056 -0.1630 0.9381
vn -0.9833 -0.1820 -0.0000
vn -0.3056 -0.1630 -0.9381
vn 0.8017 -0.1300 -0.5835
vn 0.3985 0.7174 0.5714
vn -0.4195 0.7196 0.5534
vn -0.6555 0.7202 -0.2270
vn 0.0131 0.7186 -0.6953
vn 0.6670 0.7168 -0.2032
vn -0.3398 0.9075 0.2469
vn 0.4579 0.8244 -0.3327
vn 0.3985 0.7174 -0.5714
vn 0.1287 0.9091 0.3961
vn -0.1744 0.8256 -0.5366
vn -0.4195 0.7196 -0.5534
vn 0.4144 0.9101 -0.0000
vn -0.5637 0.8260 -0.0000
vn -0.6555 0.7202 0.2270
vn 0.1287 0.9091 -0.3961
vn -0.1744 0.8256 0.5366
vn 0.0131 0.7186 0.6953
vn -0.3398 0.9075 -0.2469
vn 0.4579 0.8244 0.3327
vn 0.6670 0.7168 0.2032
vn 0.9070 0.2331 -0.3507
vn 0.8041 0.1111 -0.5841
vn 0.6138 0.2328 -0.7544
vn -0.0536 0.2307 -0.9716
vn -0.3064 0.1082 -0.9457
vn -0.5279 0.2310 -0.8173
vn -0.9407 0.2301 -0.2492
vn -0.9942 0.1071 -0.0000
vn -0.9407 0.2301 0.2492
vn -0.5279 0.2310 0.8173
vn -0.3064 0.1082 0.9457
vn -0.0536 0.2307 0.9716
vn 0.6138 0.2328 0.7544
vn 0.8041 0.1111 0.5841
vn 0.9070 0.2331 0.3507
vn 0.3088 0.0379 -0.9504
vn 0.3027 -0.2047 -0.9308
vn 0.0406 -0.3284 -0.9437
vn -0.8085 0.0351 -0.5874
vn -0.7880 -0.2259 -0.5727
vn -0.8806 -0.3487 -0.3210
vn -0.8085 0.0351 0.5874
vn -0.7880 -0.2259 0.5727
vn -0.5830 -0.3416 0.7372
vn 0.3088 0.0379 0.9504
vn 0.3027 -0.2047 0.9308
vn 0.5160 -0.3158 0.7962
vn 0.9992 0.0404 -0.0000
vn 0.9812 -0.1930 -0.0000
vn 0.9202 -0.3084 -0.2412
vn 0.3950 -0.7535 -0.5255
vn 0.1562 -0.8629 -0.4806
vn -0.0275 -0.7709 -0.6364
vn -0.3448 -0.7868 -0.5119
vn -0.3853 -0.8793 -0.2800
vn -0.5841 -0.7964 -0.1567
vn -0.5841 -0.7964 0.1567
vn -0.3853 -0.8793 0.2800
vn -0.3448 -0.7868 0.5119
vn 0.6384 -0.7394 -0.2138
vn 0.5332 -0.8460 -0.0000
vn -0.4216 -0.9068 -0.0000
vn -0.0275 -0.7709 0.6364
vn 0.1562 -0.8629 0.4806
vn 0.3950 -0.7535 0.5255
vt 0.181819 0.000000
vt 0.227273 0.078731
vt 0.136365 0.078731
vt 0.272728 0.157461
vt 0.318182 0.078731
vt 0.363637 0.157461
vt 0.909091 0.000000
vt 0.954545 0.078731
vt 0.863636 0.078731
vt 0.727273 0.000000
vt 0.772727 0.078731
vt 0.681818 0.078731
vt 0.545455 0.000000
vt 0.590909 0.078731
vt 0.500000 0.078731
vt 0.318182 0.236191
vt 0.090910 0.157461
vt 0.181819 0.157461
vt 0.136365 0.236191
vt 0.818182 0.157461
vt 0.909091 0.157461
vt 0.863636 0.236191
vt 0.636364 0.157461
vt 0.727273 0.157461
vt 0.681818 0.236191
vt 0.454546 0.157461
vt 0.545455 0.157461
vt 0.500000 0.236191
vt 0.227273 0.236191
vt 0.045455 0.236191
vt 0.772727 0.236191
vt 0.590909 0.236191
vt 0.409092 0.236191
vt 0.181819 0.314921
vt 0.272728 0.314921
vt 0.227273 0.393651
vt 0.000000 0.314921
vt 0.090910 0.314921
vt 0.045455 0.393651
vt 0.727273 0.314921
vt 0.818182 0.314921
vt 0.772727 0.393651
vt 0.545455 0.314921
vt 0.636364 0.314921
vt 0.590909 0.393651
vt 0.363637 0.314921
vt 0.454546 0.314921
vt 0.409092 0.393651
vt 0.500000 0.393651
vt 0.454546 0.472382
vt 0.681818 0.393651
vt 0.636364 0.472382
vt 0.863636 0.393651
vt 0.818182 0.472382
vt 0.909091 0.314921
vt 0.136365 0.393651
vt 0.090910 0.472382
vt 0.318182 0.393651
vt 0.272728 0.472382
vt 0.954545 0.236191
vt 1.000000 0.157461
vt 0.409092 0.078731
vt 0.363637 0.000000
s 0
usemtl Material.001
f 97/164/69 110/165/69 109/166/69
f 98/167/70 110/168/70 112/169/70
f 97/170/71 109/171/71 114/172/71
f 97/173/72 114/174/72 116/175/72
f 97/176/73 116/177/73 113/178/73
f 98/167/74 112/169/74 119/179/74
f 99/180/75 111/181/75 121/182/75
f 100/183/76 115/184/76 123/185/76
f 101/186/77 117/187/77 125/188/77
f 102/189/78 118/190/78 127/191/78
f 98/167/79 119/179/79 122/192/79
f 99/180/80 121/182/80 124/193/80
f 100/183/81 123/185/81 126/194/81
f 101/186/82 125/188/82 128/195/82
f 102/189/83 127/191/83 120/196/83
f 103/197/84 129/198/84 134/199/84
f 104/200/85 130/201/85 136/202/85
f 105/203/86 131/204/86 137/205/86
f 106/206/87 132/207/87 138/208/87
f 107/209/88 133/210/88 135/211/88
f 135/211/89 138/212/89 108/213/89
f 135/211/90 133/210/90 138/212/90
f 133/210/91 106/206/91 138/212/91
f 138/208/92 137/214/92 108/215/92
f 138/208/93 132/207/93 137/214/93
f 132/207/94 105/203/94 137/214/94
f 137/205/95 136/216/95 108/217/95
f 137/205/96 131/204/96 136/216/96
f 131/204/97 104/218/97 136/216/97
f 136/202/98 134/219/98 108/220/98
f 136/202/99 130/201/99 134/219/99
f 130/201/100 103/197/100 134/219/100
f 134/199/101 135/221/101 108/222/101
f 134/199/102 129/198/102 135/221/102
f 129/198/103 107/209/103 135/221/103
f 120/196/104 133/210/104 107/209/104
f 120/196/105 127/191/105 133/210/105
f 127/191/106 106/206/106 133/210/106
f 128/195/107 132/207/107 106/206/107
f 128/195/108 125/188/108 132/207/108
f 125/188/109 105/203/109 132/207/109
f 126/194/110 131/204/110 105/203/110
f 126/194/111 123/185/111 131/204/111
f 123/185/112 104/218/112 131/204/112
f 124/193/113 130/201/113 104/200/113
f 124/193/114 121/182/114 130/201/114
f 121/182/115 103/197/115 130/201/115
f 122/192/116 129/198/116 103/197/116
f 122/192/117 119/179/117 129/198/117
f 119/179/118 107/209/118 129/198/118
f 127/191/119 128/195/119 106/206/119
f 127/191/120 118/190/120 128/195/120
f 118/190/121 101/186/121 128/195/121
f 125/188/122 126/194/122 105/203/122
f 125/188/123 117/187/123 126/194/123
f 117/187/124 100/183/124 126/194/124
f 123/185/125 124/223/125 104/218/125
f 123/185/126 115/184/126 124/223/126
f 115/184/127 99/224/127 124/223/127
f 121/182/128 122/192/128 103/197/128
f 121/182/129 111/181/129 122/192/129
f 111/181/130 98/167/130 122/192/130
f 119/179/131 120/196/131 107/209/131
f 119/179/132 112/169/132 120/196/132
f 112/169/133 102/189/133 120/196/133
f 113/178/134 118/190/134 102/189/134
f 113/178/135 116/177/135 118/190/135
f 116/177/136 101/186/136 118/190/136
f 116/175/137 117/187/137 101/186/137
f 116/175/138 114/174/138 117/187/138
f 114/174/139 100/183/139 117/187/139
f 114/172/140 115/184/140 100/183/140
f 114/172/141 109/171/141 115/184/141
f 109/171/142 99/224/142 115/184/142
f 112/169/143 113/225/143 102/189/143
f 112/169/144 110/168/144 113/225/144
f 110/168/145 97/226/145 113/225/145
f 109/166/146 111/181/146 99/180/146
f 109/166/147 110/165/147 111/181/147
f 110/165/148 98/167/148 111/181/148
