# Blender 4.2.1 LTS
# www.blender.org
mtllib weapon0014.mtl
o Cube
v 3.489384 1.104008 -0.377223
v 3.547007 -0.895074 -0.395982
v 3.479793 1.095721 0.476433
v 3.537416 -0.903361 0.457674
v -3.497699 0.903361 -0.457674
v -3.440075 -1.095721 -0.476433
v -3.507290 0.895074 0.395982
v -3.449667 -1.104008 0.377223
vn -0.0288 0.9995 0.0094
vn -0.0112 -0.0097 0.9999
vn -0.9995 -0.0287 -0.0115
vn 0.0288 -0.9995 -0.0094
vn 0.9995 0.0287 0.0115
vn 0.0112 0.0097 -0.9999
vt 0.625000 0.500000
vt 0.875000 0.500000
vt 0.875000 0.750000
vt 0.625000 0.750000
vt 0.375000 0.750000
vt 0.625000 1.000000
vt 0.375000 1.000000
vt 0.375000 0.000000
vt 0.625000 0.000000
vt 0.625000 0.250000
vt 0.375000 0.250000
vt 0.125000 0.500000
vt 0.375000 0.500000
vt 0.125000 0.750000
s 0
usemtl Material
f 1/1/1 5/2/1 7/3/1 3/4/1
f 4/5/2 3/4/2 7/6/2 8/7/2
f 8/8/3 7/9/3 5/10/3 6/11/3
f 6/12/4 2/13/4 4/5/4 8/14/4
f 2/13/5 1/1/5 3/4/5 4/5/5
f 6/11/6 5/10/6 1/1/6 2/13/6
