# Blender 4.2.1 LTS
# www.blender.org
mtllib weapon0032.mtl
o Cube
v 1.883891 2.708600 1.612855
v 3.241435 1.316438 1.144925
v 1.691577 2.281211 2.326467
v 3.049121 0.889049 1.858538
v -3.002048 -0.889049 -1.858538
v -1.644505 -2.281211 -2.326467
v -3.194363 -1.316438 -1.144925
v -1.836819 -2.708600 -1.612855
vn -0.6788 0.6961 0.2340
vn -0.2253 -0.5006 0.8359
vn -0.6989 -0.5147 -0.4966
vn 0.6788 -0.6961 -0.2340
vn 0.6989 0.5147 0.4966
vn 0.2253 0.5006 -0.8359
vt 0.625000 0.500000
vt 0.875000 0.500000
vt 0.875000 0.750000
vt 0.625000 0.750000
vt 0.375000 0.750000
vt 0.625000 1.000000
vt 0.375000 1.000000
vt 0.375000 0.000000
vt 0.625000 0.000000
vt 0.625000 0.250000
vt 0.375000 0.250000
vt 0.125000 0.500000
vt 0.375000 0.500000
vt 0.125000 0.750000
s 0
usemtl Material
f 1/1/1 5/2/1 7/3/1 3/4/1
f 4/5/2 3/4/2 7/6/2 8/7/2
f 8/8/3 7/9/3 5/10/3 6/11/3
f 6/12/4 2/13/4 4/5/4 8/14/4
f 2/13/5 1/1/5 3/4/5 4/5/5
f 6/11/6 5/10/6 1/1/6 2/13/6
