# Blender 4.2.1 LTS
# www.blender.org
mtllib weapon0030.mtl
o Cube
v -0.090761 3.379300 1.402143
v 1.848885 2.915399 1.251913
v -0.133090 2.961579 2.145519
v 1.806556 2.497679 1.995288
v -1.759484 -2.497679 -1.995288
v 0.180162 -2.961579 -2.145519
v -1.801813 -2.915399 -1.251913
v 0.137834 -3.379300 -1.402143
vn -0.9698 0.2320 0.0751
vn -0.0496 -0.4893 0.8707
vn -0.2387 -0.8407 -0.4860
vn 0.9698 -0.2320 -0.0751
vn 0.2387 0.8407 0.4860
vn 0.0496 0.4893 -0.8707
vt 0.625000 0.500000
vt 0.875000 0.500000
vt 0.875000 0.750000
vt 0.625000 0.750000
vt 0.375000 0.750000
vt 0.625000 1.000000
vt 0.375000 1.000000
vt 0.375000 0.000000
vt 0.625000 0.000000
vt 0.625000 0.250000
vt 0.375000 0.250000
vt 0.125000 0.500000
vt 0.375000 0.500000
vt 0.125000 0.750000
s 0
usemtl Material
f 1/1/1 5/2/1 7/3/1 3/4/1
f 4/5/2 3/4/2 7/6/2 8/7/2
f 8/8/3 7/9/3 5/10/3 6/11/3
f 6/12/4 2/13/4 4/5/4 8/14/4
f 2/13/5 1/1/5 3/4/5 4/5/5
f 6/11/6 5/10/6 1/1/6 2/13/6
