# Blender 4.2.1 LTS
# www.blender.org
mtllib weapon0021.mtl
o Cube
v 0.821916 3.111656 1.754686
v 2.572678 2.197861 1.438756
v 0.698066 2.633592 2.451109
v 2.448828 1.719797 2.135179
v -2.401756 -1.719797 -2.135179
v -0.650994 -2.633592 -2.451109
v -2.525605 -2.197861 -1.438756
v -0.774843 -3.111656 -1.754686
vn -0.8754 0.4569 0.1580
vn -0.1451 -0.5600 0.8157
vn -0.4612 -0.6912 -0.5565
vn 0.8754 -0.4569 -0.1580
vn 0.4612 0.6912 0.5565
vn 0.1451 0.5600 -0.8157
vt 0.625000 0.500000
vt 0.875000 0.500000
vt 0.875000 0.750000
vt 0.625000 0.750000
vt 0.375000 0.750000
vt 0.625000 1.000000
vt 0.375000 1.000000
vt 0.375000 0.000000
vt 0.625000 0.000000
vt 0.625000 0.250000
vt 0.375000 0.250000
vt 0.125000 0.500000
vt 0.375000 0.500000
vt 0.125000 0.750000
s 0
usemtl Material
f 1/1/1 5/2/1 7/3/1 3/4/1
f 4/5/2 3/4/2 7/6/2 8/7/2
f 8/8/3 7/9/3 5/10/3 6/11/3
f 6/12/4 2/13/4 4/5/4 8/14/4
f 2/13/5 1/1/5 3/4/5 4/5/5
f 6/11/6 5/10/6 1/1/6 2/13/6
