# Blender 4.2.1 LTS
# www.blender.org
mtllib weapon0033.mtl
o Cube
v 2.761001 2.161659 1.110068
v 3.605350 0.412922 0.631537
v 2.559007 1.853396 1.880172
v 3.403356 0.104658 1.401642
v -3.356284 -0.104658 -1.401642
v -2.511934 -1.853396 -1.880172
v -3.558278 -0.412922 -0.631537
v -2.713928 -2.161659 -1.110068
vn -0.4222 0.8744 0.2393
vn -0.2366 -0.3611 0.9020
vn -0.8751 -0.3242 -0.3593
vn 0.4222 -0.8744 -0.2393
vn 0.8751 0.3242 0.3593
vn 0.2366 0.3611 -0.9020
vt 0.625000 0.500000
vt 0.875000 0.500000
vt 0.875000 0.750000
vt 0.625000 0.750000
vt 0.375000 0.750000
vt 0.625000 1.000000
vt 0.375000 1.000000
vt 0.375000 0.000000
vt 0.625000 0.000000
vt 0.625000 0.250000
vt 0.375000 0.250000
vt 0.125000 0.500000
vt 0.375000 0.500000
vt 0.125000 0.750000
s 0
usemtl Material
f 1/1/1 5/2/1 7/3/1 3/4/1
f 4/5/2 3/4/2 7/6/2 8/7/2
f 8/8/3 7/9/3 5/10/3 6/11/3
f 6/12/4 2/13/4 4/5/4 8/14/4
f 2/13/5 1/1/5 3/4/5 4/5/5
f 6/11/6 5/10/6 1/1/6 2/13/6
