# Blender 4.2.1 LTS
# www.blender.org
mtllib weapon0009.mtl
o Cube
v 3.115240 1.875706 -0.426664
v 3.636060 -0.055290 -0.426726
v 3.115205 1.875669 0.427086
v 3.636025 -0.055327 0.427024
v -3.634002 0.055327 -0.427024
v -3.113182 -1.875669 -0.427086
v -3.634038 0.055290 0.426726
v -3.113217 -1.875706 0.426664
vn -0.2604 0.9655 -0.0000
vn -0.0000 -0.0000 1.0000
vn -0.9655 -0.2604 -0.0001
vn 0.2604 -0.9655 -0.0000
vn 0.9655 0.2604 0.0001
vn -0.0000 -0.0000 -1.0000
vt 0.625000 0.500000
vt 0.875000 0.500000
vt 0.875000 0.750000
vt 0.625000 0.750000
vt 0.375000 0.750000
vt 0.625000 1.000000
vt 0.375000 1.000000
vt 0.375000 0.000000
vt 0.625000 0.000000
vt 0.625000 0.250000
vt 0.375000 0.250000
vt 0.125000 0.500000
vt 0.375000 0.500000
vt 0.125000 0.750000
s 0
usemtl Material
f 1/1/1 5/2/1 7/3/1 3/4/1
f 4/5/2 3/4/2 7/6/2 8/7/2
f 8/8/3 7/9/3 5/10/3 6/11/3
f 6/12/4 2/13/4 4/5/4 8/14/4
f 2/13/5 1/1/5 3/4/5 4/5/5
f 6/11/6 5/10/6 1/1/6 2/13/6
