# Blender 4.2.1 LTS
# www.blender.org
mtllib weapon0012.mtl
o Cube
v 3.349883 1.444118 -0.412610
v 3.608124 -0.539133 -0.417484
v 3.347287 1.441682 0.441132
v 3.605529 -0.541569 0.436258
v -3.581992 0.541569 -0.436258
v -3.323751 -1.441682 -0.441132
v -3.584588 0.539133 0.417484
v -3.326347 -1.444118 0.412610
vn -0.1291 0.9916 0.0024
vn -0.0030 -0.0029 1.0000
vn -0.9916 -0.1291 -0.0034
vn 0.1291 -0.9916 -0.0024
vn 0.9916 0.1291 0.0034
vn 0.0030 0.0029 -1.0000
vt 0.625000 0.500000
vt 0.875000 0.500000
vt 0.875000 0.750000
vt 0.625000 0.750000
vt 0.375000 0.750000
vt 0.625000 1.000000
vt 0.375000 1.000000
vt 0.375000 0.000000
vt 0.625000 0.000000
vt 0.625000 0.250000
vt 0.375000 0.250000
vt 0.125000 0.500000
vt 0.375000 0.500000
vt 0.125000 0.750000
s 0
usemtl Material
f 1/1/1 5/2/1 7/3/1 3/4/1
f 4/5/2 3/4/2 7/6/2 8/7/2
f 8/8/3 7/9/3 5/10/3 6/11/3
f 6/12/4 2/13/4 4/5/4 8/14/4
f 2/13/5 1/1/5 3/4/5 4/5/5
f 6/11/6 5/10/6 1/1/6 2/13/6
