# Blender 4.2.1 LTS
# www.blender.org
mtllib weapon0018.mtl
o Cube
v 3.295855 1.561741 0.501625
v 3.661724 -0.373160 0.151914
v 3.143218 1.384479 1.322703
v 3.509086 -0.550422 0.972991
v -3.462014 0.550422 -0.972991
v -3.096145 -1.384479 -1.322703
v -3.614651 0.373160 -0.151914
v -3.248783 -1.561741 -0.501625
vn -0.1829 0.9675 0.1749
vn -0.1788 -0.2076 0.9617
vn -0.9667 -0.1447 -0.2109
vn 0.1829 -0.9675 -0.1749
vn 0.9667 0.1447 0.2109
vn 0.1788 0.2076 -0.9617
vt 0.625000 0.500000
vt 0.875000 0.500000
vt 0.875000 0.750000
vt 0.625000 0.750000
vt 0.375000 0.750000
vt 0.625000 1.000000
vt 0.375000 1.000000
vt 0.375000 0.000000
vt 0.625000 0.000000
vt 0.625000 0.250000
vt 0.375000 0.250000
vt 0.125000 0.500000
vt 0.375000 0.500000
vt 0.125000 0.750000
s 0
usemtl Material
f 1/1/1 5/2/1 7/3/1 3/4/1
f 4/5/2 3/4/2 7/6/2 8/7/2
f 8/8/3 7/9/3 5/10/3 6/11/3
f 6/12/4 2/13/4 4/5/4 8/14/4
f 2/13/5 1/1/5 3/4/5 4/5/5
f 6/11/6 5/10/6 1/1/6 2/13/6
