# Blender 4.2.1 LTS
# www.blender.org
mtllib weapon0027.mtl
o Cube
v -1.007472 3.508733 -0.156687
v 0.991962 3.524233 -0.201669
v -0.987852 3.448651 0.694720
v 1.011583 3.464151 0.649738
v -0.964510 -3.464151 -0.649738
v 1.034924 -3.448651 -0.694720
v -0.944890 -3.524233 0.201669
v 1.054544 -3.508733 0.156687
vn -0.9997 -0.0077 0.0225
vn 0.0230 -0.0704 0.9973
vn 0.0061 -0.9975 -0.0705
vn 0.9997 0.0077 -0.0225
vn -0.0061 0.9975 0.0705
vn -0.0230 0.0704 -0.9973
vt 0.625000 0.500000
vt 0.875000 0.500000
vt 0.875000 0.750000
vt 0.625000 0.750000
vt 0.375000 0.750000
vt 0.625000 1.000000
vt 0.375000 1.000000
vt 0.375000 0.000000
vt 0.625000 0.000000
vt 0.625000 0.250000
vt 0.375000 0.250000
vt 0.125000 0.500000
vt 0.375000 0.500000
vt 0.125000 0.750000
s 0
usemtl Material
f 1/1/1 5/2/1 7/3/1 3/4/1
f 4/5/2 3/4/2 7/6/2 8/7/2
f 8/8/3 7/9/3 5/10/3 6/11/3
f 6/12/4 2/13/4 4/5/4 8/14/4
f 2/13/5 1/1/5 3/4/5 4/5/5
f 6/11/6 5/10/6 1/1/6 2/13/6
