# Blender 4.2.1 LTS
# www.blender.org
mtllib weapon0031.mtl
o Cube
v 0.836539 3.127534 1.719387
v 2.584060 2.207701 1.403036
v 0.715701 2.656603 2.421178
v 2.463222 1.736770 2.104828
v -2.416150 -1.736770 -2.104828
v -0.668629 -2.656603 -2.421178
v -2.536987 -2.207701 -1.403036
v -0.789467 -3.127534 -1.719387
vn -0.8738 0.4599 0.1582
vn -0.1415 -0.5516 0.8220
vn -0.4653 -0.6959 -0.5471
vn 0.8738 -0.4599 -0.1582
vn 0.4653 0.6959 0.5471
vn 0.1415 0.5516 -0.8220
vt 0.625000 0.500000
vt 0.875000 0.500000
vt 0.875000 0.750000
vt 0.625000 0.750000
vt 0.375000 0.750000
vt 0.625000 1.000000
vt 0.375000 1.000000
vt 0.375000 0.000000
vt 0.625000 0.000000
vt 0.625000 0.250000
vt 0.375000 0.250000
vt 0.125000 0.500000
vt 0.375000 0.500000
vt 0.125000 0.750000
s 0
usemtl Material
f 1/1/1 5/2/1 7/3/1 3/4/1
f 4/5/2 3/4/2 7/6/2 8/7/2
f 8/8/3 7/9/3 5/10/3 6/11/3
f 6/12/4 2/13/4 4/5/4 8/14/4
f 2/13/5 1/1/5 3/4/5 4/5/5
f 6/11/6 5/10/6 1/1/6 2/13/6
