# Blender 4.2.1 LTS
# www.blender.org
mtllib weapon0010.mtl
o Cube
v 3.178593 1.771408 -0.425161
v 3.635015 -0.175815 -0.425686
v 3.178298 1.771109 0.428588
v 3.634721 -0.176114 0.428064
v -3.627366 0.176114 -0.428064
v -3.170943 -1.771109 -0.428588
v -3.627660 0.175815 0.425686
v -3.171237 -1.771408 0.425161
vn -0.2282 0.9736 0.0003
vn -0.0003 -0.0004 1.0000
vn -0.9736 -0.2282 -0.0004
vn 0.2282 -0.9736 -0.0003
vn 0.9736 0.2282 0.0004
vn 0.0003 0.0004 -1.0000
vt 0.625000 0.500000
vt 0.875000 0.500000
vt 0.875000 0.750000
vt 0.625000 0.750000
vt 0.375000 0.750000
vt 0.625000 1.000000
vt 0.375000 1.000000
vt 0.375000 0.000000
vt 0.625000 0.000000
vt 0.625000 0.250000
vt 0.375000 0.250000
vt 0.125000 0.500000
vt 0.375000 0.500000
vt 0.125000 0.750000
s 0
usemtl Material
f 1/1/1 5/2/1 7/3/1 3/4/1
f 4/5/2 3/4/2 7/6/2 8/7/2
f 8/8/3 7/9/3 5/10/3 6/11/3
f 6/12/4 2/13/4 4/5/4 8/14/4
f 2/13/5 1/1/5 3/4/5 4/5/5
f 6/11/6 5/10/6 1/1/6 2/13/6
