# Blender 4.2.1 LTS
# www.blender.org
mtllib weapon0028.mtl
o Cube
v -0.958200 3.517011 0.256055
v 1.041343 3.509560 0.213993
v -0.941159 3.357100 1.094522
v 1.058385 3.349649 1.052460
v -1.011313 -3.349649 -1.052460
v 0.988231 -3.357100 -1.094522
v -0.994271 -3.509560 -0.213993
v 1.005273 -3.517011 -0.256055
vn -0.9998 0.0037 0.0210
vn 0.0200 -0.1873 0.9821
vn -0.0076 -0.9823 -0.1872
vn 0.9998 -0.0037 -0.0210
vn 0.0076 0.9823 0.1872
vn -0.0200 0.1873 -0.9821
vt 0.625000 0.500000
vt 0.875000 0.500000
vt 0.875000 0.750000
vt 0.625000 0.750000
vt 0.375000 0.750000
vt 0.625000 1.000000
vt 0.375000 1.000000
vt 0.375000 0.000000
vt 0.625000 0.000000
vt 0.625000 0.250000
vt 0.375000 0.250000
vt 0.125000 0.500000
vt 0.375000 0.500000
vt 0.125000 0.750000
s 0
usemtl Material
f 1/1/1 5/2/1 7/3/1 3/4/1
f 4/5/2 3/4/2 7/6/2 8/7/2
f 8/8/3 7/9/3 5/10/3 6/11/3
f 6/12/4 2/13/4 4/5/4 8/14/4
f 2/13/5 1/1/5 3/4/5 4/5/5
f 6/11/6 5/10/6 1/1/6 2/13/6
