# Blender 4.2.1 LTS
# www.blender.org
mtllib weapon0015.mtl
o Cube
v 3.529168 0.990725 -0.347353
v 3.520734 -1.009017 -0.378352
v 3.513502 0.977560 0.506151
v 3.505068 -1.022182 0.475153
v -3.460019 1.022182 -0.475153
v -3.468452 -0.977560 -0.506151
v -3.475685 1.009017 0.378352
v -3.484118 -0.990725 0.347353
vn 0.0042 0.9999 0.0155
vn -0.0183 -0.0154 0.9997
vn -0.9998 0.0045 -0.0183
vn -0.0042 -0.9999 -0.0155
vn 0.9998 -0.0045 0.0183
vn 0.0183 0.0154 -0.9997
vt 0.625000 0.500000
vt 0.875000 0.500000
vt 0.875000 0.750000
vt 0.625000 0.750000
vt 0.375000 0.750000
vt 0.625000 1.000000
vt 0.375000 1.000000
vt 0.375000 0.000000
vt 0.625000 0.000000
vt 0.625000 0.250000
vt 0.375000 0.250000
vt 0.125000 0.500000
vt 0.375000 0.500000
vt 0.125000 0.750000
s 0
usemtl Material
f 1/1/1 5/2/1 7/3/1 3/4/1
f 4/5/2 3/4/2 7/6/2 8/7/2
f 8/8/3 7/9/3 5/10/3 6/11/3
f 6/12/4 2/13/4 4/5/4 8/14/4
f 2/13/5 1/1/5 3/4/5 4/5/5
f 6/11/6 5/10/6 1/1/6 2/13/6
