# Blender 4.2.1 LTS
# www.blender.org
mtllib weapon0037.mtl
o Cube
v 3.532513 0.995538 -0.307760
v 3.525693 -1.003899 -0.354708
v 3.509145 0.975584 0.545437
v 3.502325 -1.023853 0.498489
v -3.455252 1.023853 -0.498489
v -3.462073 -0.975584 -0.545437
v -3.478621 1.003899 0.354708
v -3.485441 -0.995538 0.307760
vn 0.0034 0.9997 0.0235
vn -0.0274 -0.0234 0.9994
vn -0.9996 0.0041 -0.0273
vn -0.0034 -0.9997 -0.0235
vn 0.9996 -0.0041 0.0273
vn 0.0274 0.0234 -0.9994
vt 0.625000 0.500000
vt 0.875000 0.500000
vt 0.875000 0.750000
vt 0.625000 0.750000
vt 0.375000 0.750000
vt 0.625000 1.000000
vt 0.375000 1.000000
vt 0.375000 0.000000
vt 0.625000 0.000000
vt 0.625000 0.250000
vt 0.375000 0.250000
vt 0.125000 0.500000
vt 0.375000 0.500000
vt 0.125000 0.750000
s 0
usemtl Material
f 1/1/1 5/2/1 7/3/1 3/4/1
f 4/5/2 3/4/2 7/6/2 8/7/2
f 8/8/3 7/9/3 5/10/3 6/11/3
f 6/12/4 2/13/4 4/5/4 8/14/4
f 2/13/5 1/1/5 3/4/5 4/5/5
f 6/11/6 5/10/6 1/1/6 2/13/6
